<svg xmlns="http://www.w3.org/2000/svg" width="24" height="24" viewBox="0 0 24 24" fill="none" stroke="currentColor" stroke-width="2" stroke-linecap="round" stroke-linejoin="round" class="icon-ai">
  <path d="M12 2a4 4 0 0 1 4 4v4a4 4 0 1 1-8 0V6a4 4 0 0 1 4-4z" stroke="#8b5cf6" fill="none"></path>
  <path d="M16 16v2a2 2 0 0 1-2 2h-4a2 2 0 0 1-2-2v-2" stroke="#8b5cf6" fill="none"></path>
  <path d="M8 10V8M16 10V8" stroke="#8b5cf6" fill="none"></path>
  <line x1="8" y1="16" x2="8" y2="22" stroke="#8b5cf6"></line>
  <line x1="16" y1="16" x2="16" y2="22" stroke="#8b5cf6"></line>
</svg> 